<?xml version="1.0"?>
<svg xmlns="http://www.w3.org/2000/svg" xmlns:xlink="http://www.w3.org/1999/xlink" version="1.1" id="Layer_1" x="0px" y="0px" viewBox="0 0 512.566 512.566" style="enable-background:new 0 0 512.566 512.566;" xml:space="preserve" width="512px" height="512px"><g><path d="M508.762,17.172c-1.232-7.908-7.06-14.319-14.813-16.299c-7.756-1.981-15.941,0.853-20.814,7.202  c-9.369,12.207-20.064,12.348-49.618,10.96c-7.303-0.343-15.58-0.732-24.4-0.783c-0.571-0.003-1.142-0.005-1.713-0.005  c-35.798,0-68.553,6.521-102.925,20.474c-0.151,0.062-0.302,0.125-0.452,0.19c-27.524,11.967-54.689,35.446-69.208,59.815  c-33.175,55.69-62.81,72.198-100.328,93.096c-17.351,9.665-37.017,20.619-58.525,36.384c-20.997,15.39-37.937,35.687-48.988,58.696  C5.692,310.393-0.178,336.596,0.004,362.677c0.185,26.548,6.659,53.11,18.723,76.81l1.576,3.1  c11.365,22.329,29.998,40.733,52.465,51.823c24.163,11.929,50.275,17.907,76.422,17.907c24.316,0,48.663-5.174,71.485-15.543  c26.958-12.249,49.212-29.824,64.357-50.828c3.945-5.474,7.707-10.938,11.5-16.707c6.068-9.229,3.507-21.63-5.723-27.699  c-9.23-6.068-21.631-3.508-27.699,5.723c-3.476,5.285-6.919,10.288-10.525,15.291c-0.016,0.022-0.033,0.043-0.049,0.065  c-9.013-3.098-25.906-9.936-46.324-23.111c14.073-14.231,27.26-29.363,40.323-44.357c7.103-8.153,14.282-16.383,21.64-24.529  c18.836,13.963,38.041,23.664,56.2,28.066c0.569,0.138,1.137,0.241,1.705,0.328c7.139,1.422,14.798-1.1,19.619-7.205  c17.9-22.675,41.607-42.57,76.868-64.51c27.498-17.11,49.111-42.5,64.238-75.462c11.663-25.413,19.473-55.36,23.214-89.01  C516.279,66.529,509.071,19.161,508.762,17.172z M433.258,224.179c-10.202-4.08-19.95-8.683-29.242-13.792  c11.342-11.419,21.852-23.331,31.573-36.214c12.406-16.44,23.534-34.152,34.731-55.736  C466.355,154.547,456.239,194.158,433.258,224.179z M265.683,275.312c-5.446-5.586-10.789-11.577-15.952-17.928  c-1.602-1.97-3.143-3.927-4.637-5.872c22.047-19.452,37.296-37.722,52.296-55.697c3.547-4.25,7.052-8.446,10.611-12.621  c8.894,10.344,19.409,20.98,31.728,31.32c-10.747,8.801-22.557,17.928-35.673,27.695  C290.168,252.551,277.532,263.722,265.683,275.312z M335.37,153.673c4.811-4.663,9.973-9.388,15.624-14.218  c22.348-19.097,48.678-32.613,74.141-45.685c5.86-3.008,11.663-5.99,17.333-9.004c-20.782,43.444-41.515,73.235-72.451,103.034  C357.278,177.659,345.714,166.275,335.37,153.673z M398.885,58.25c2.583,0.015,5.099,0.069,7.587,0.138  c-26.133,13.415-55.69,28.632-81.465,50.658c-4.431,3.787-8.582,7.517-12.526,11.204c-8.699-15.475-13.838-28.865-16.456-37.231  c4.512-2.833,9.131-5.317,13.733-7.332C348.935,59.826,379.367,58.143,398.885,58.25z M259.182,119.196  c1.438-2.413,3.075-4.827,4.873-7.222c4.247,10.324,10.58,23.603,19.649,38.166c-5.951,6.786-11.525,13.457-17.025,20.047  c-13.163,15.773-26.007,31.163-43.478,47.207c-7.584-14.807-11.455-27.497-12.098-36.553  C227.047,165.823,242.983,146.389,259.182,119.196z M143.954,226.766c10.856-6.047,21.546-12.004,32.147-18.819  c3.486,11.159,8.706,22.992,15.477,35.09c-18.009,12.972-40.201,26.637-68.785,41.459c-0.706,0.366-1.39,0.773-2.048,1.222  c-2.152,1.465-4.262,2.962-6.341,4.482c-6.401-17.175-9.322-31.611-10.582-39.622C117.871,241.295,131.077,233.938,143.954,226.766z   M72.868,432.401c4.185-29.164,14.436-54.626,30.666-76.189c7.338,10.835,15.99,21.663,26.2,32.055  c4.631,4.714,9.259,9.148,13.857,13.317C123.15,416.589,100.438,427.588,72.868,432.401z M53.032,304.219  c4.228-8.802,9.637-17.076,16.026-24.609c2.938,11.247,7.278,24.634,13.657,38.996c-13.928,15.37-25.152,32.595-33.545,51.546  c-2.432,5.492-4.616,11.148-6.573,16.944C37.157,359.346,40.608,330.086,53.032,304.219z M106.564,465.213  c26.496-8.499,49.009-21.917,69.177-38.025c16.411,11.401,31.467,19.486,43.697,25.099c-4.821,2.923-9.93,5.624-15.31,8.068  C173.067,474.469,138.348,476.044,106.564,465.213z M174.07,375.175c-5.213-4.575-10.497-9.541-15.803-14.941  c-10.531-10.719-19.072-22.08-26.006-33.339c3.226-2.567,6.562-5.06,10.039-7.457c29.229-15.211,52.408-29.488,71.439-43.089  c1.614,2.093,3.261,4.183,4.956,6.268c6.254,7.693,12.734,14.927,19.367,21.662c-7.384,8.192-14.571,16.43-21.684,24.594  C202.047,345.321,188.322,361.071,174.07,375.175z M323.187,316.414c-8.707-3.415-17.829-8.469-27.037-14.911  c10.011-9.635,20.528-18.821,31.796-27.212c16.276-12.121,31.335-23.805,45.303-35.632c8.59,5.279,17.793,10.317,27.663,15.006  C367.176,274.702,342.647,294.454,323.187,316.414z" data-original="#000000" class="active-path" data-old_color="#F7E6E6" fill="#FCF7F7"/></g> </svg>
